<?xml version="1.0" encoding="UTF-8"?>
<svg id="Layer_2" data-name="Layer 2" xmlns="http://www.w3.org/2000/svg" xmlns:xlink="http://www.w3.org/1999/xlink" viewBox="0 0 155.04 64.04">
  <defs>
    <style>
      .cls-1, .cls-2 {
        fill: none;
      }

      .cls-3 {
        fill: #eb2027;
      }

      .cls-4 {
        fill: #0e0b0b;
      }

      .cls-5 {
        fill: #06668d;
      }

      .cls-6 {
        fill: #231f20;
      }

      .cls-7 {
        fill: url(#radial-gradient);
      }

      .cls-8 {
        fill: url(#linear-gradient);
      }

      .cls-9 {
        fill: url(#linear-gradient-2);
        stroke-width: 1.18px;
      }

      .cls-9, .cls-10, .cls-11, .cls-12, .cls-2 {
        stroke: #fff;
        stroke-miterlimit: 10;
      }

      .cls-10 {
        fill: url(#linear-gradient-5);
        stroke-width: .97px;
      }

      .cls-11 {
        fill: url(#linear-gradient-4);
        stroke-width: .86px;
      }

      .cls-12 {
        fill: url(#linear-gradient-3);
        stroke-width: 1.4px;
      }

      .cls-13 {
        fill: #35bfde;
      }

      .cls-14 {
        font-family: FatFrank-Heavy, FatFrank;
        font-size: 13.17px;
        font-weight: 800;
      }

      .cls-14, .cls-15 {
        fill: #fff;
      }

      .cls-16 {
        fill: #44c0da;
      }

      .cls-2 {
        stroke-width: 1.36px;
      }

      .cls-17 {
        fill: #0e0a0a;
      }

      .cls-18 {
        letter-spacing: -.04em;
      }

      .cls-19 {
        letter-spacing: 0em;
      }

      .cls-20 {
        fill: #0d7fab;
      }

      .cls-21 {
        letter-spacing: .06em;
      }

      .cls-22 {
        letter-spacing: .07em;
      }

      .cls-23 {
        letter-spacing: .06em;
      }

      .cls-24 {
        letter-spacing: .06em;
      }

      .cls-25 {
        fill: #0079a7;
      }

      .cls-26 {
        clip-path: url(#clippath);
      }

      .cls-27 {
        letter-spacing: .02em;
      }

      .cls-28 {
        letter-spacing: .02em;
      }

      .cls-29 {
        letter-spacing: .05em;
      }

      .cls-30 {
        letter-spacing: .05em;
      }

      .cls-31 {
        fill: #f6cf49;
      }
    </style>
    <clipPath id="clippath">
      <circle class="cls-1" cx="32.02" cy="32.02" r="28.44"/>
    </clipPath>
    <linearGradient id="linear-gradient" x1="55.21" y1="-4233.33" x2="59.38" y2="-4233.33" gradientTransform="translate(.13 4263.13)" gradientUnits="userSpaceOnUse">
      <stop offset="0" stop-color="#1c6a60"/>
      <stop offset=".99" stop-color="#26867e"/>
      <stop offset=".99" stop-color="#2b867a"/>
      <stop offset=".99" stop-color="#3c8672"/>
      <stop offset=".99" stop-color="#588664"/>
      <stop offset="1" stop-color="#7f8650"/>
      <stop offset="1" stop-color="#b08637"/>
      <stop offset="1" stop-color="#cc862a"/>
    </linearGradient>
    <radialGradient id="radial-gradient" cx="32.52" cy="-4395.51" fx="32.52" fy="-4395.51" r="31.06" gradientTransform="translate(.13 4262.08) scale(1 .96)" gradientUnits="userSpaceOnUse">
      <stop offset=".29" stop-color="#fff"/>
      <stop offset=".35" stop-color="#f2f9fb"/>
      <stop offset=".47" stop-color="#d1ebf1"/>
      <stop offset=".62" stop-color="#9ad4e1"/>
      <stop offset=".8" stop-color="#50b5cb"/>
      <stop offset=".99" stop-color="#0094b3"/>
    </radialGradient>
    <linearGradient id="linear-gradient-2" x1="25.21" y1="-4229.05" x2="48.8" y2="-4229.05" gradientTransform="translate(.13 4263.13)" gradientUnits="userSpaceOnUse">
      <stop offset="0" stop-color="#cc862a"/>
      <stop offset="0" stop-color="#b08637"/>
      <stop offset="0" stop-color="#7f8650"/>
      <stop offset="0" stop-color="#588664"/>
      <stop offset="0" stop-color="#3c8672"/>
      <stop offset="0" stop-color="#2b867a"/>
      <stop offset=".01" stop-color="#26867e"/>
      <stop offset="1" stop-color="#1c6a60"/>
    </linearGradient>
    <linearGradient id="linear-gradient-3" x1="41.6" y1="-4235.28" x2="65.2" y2="-4235.28" xlink:href="#linear-gradient-2"/>
    <linearGradient id="linear-gradient-4" x1="49.98" y1="-4219.22" x2="59.19" y2="-4211.49" xlink:href="#linear-gradient-2"/>
    <linearGradient id="linear-gradient-5" x1=".41" y1="-4210.5" x2="26.05" y2="-4210.5" xlink:href="#linear-gradient"/>
  </defs>
  <g id="Layer_1-2" data-name="Layer 1">
    <text class="cls-14" transform="translate(69.94 22.52)"><tspan class="cls-30" x="0" y="0">WE</tspan><tspan class="cls-24" x="21.18" y="0">L</tspan><tspan class="cls-30" x="27.9" y="0">LING</tspan><tspan class="cls-27" x="57.42" y="0">T</tspan><tspan class="cls-30" x="65.09" y="0">ON</tspan><tspan class="cls-21" x="0" y="13.49">R</tspan><tspan class="cls-28" x="8.83" y="13.49">A</tspan><tspan class="cls-30" x="17.89" y="13.49">TE</tspan><tspan class="cls-19" x="33.8" y="13.49">P</tspan><tspan class="cls-18" x="41.28" y="13.49">A</tspan><tspan class="cls-30" x="49.56" y="13.49">YERS&apos;</tspan><tspan class="cls-29" x="0" y="26.99">ALL</tspan><tspan class="cls-22" x="22.47" y="26.99">I</tspan><tspan class="cls-23" x="27" y="26.99">A</tspan><tspan class="cls-30" x="36.59" y="26.99">NCE</tspan></text>
    <g>
      <circle class="cls-2" cx="32.02" cy="32.02" r="31.34"/>
      <g class="cls-26">
        <g>
          <rect class="cls-8" x="55.35" y="27.02" width="4.17" height="5.55"/>
          <ellipse class="cls-7" cx="32.65" cy="33.46" rx="31.06" ry="29.88"/>
          <rect class="cls-15" x="16.22" y="44.28" width="38.5" height="19.74" transform="translate(-2.01 1.37) rotate(-2.15)"/>
          <circle class="cls-31" cx="9.08" cy="29.46" r="14.57"/>
          <rect class="cls-25" x="3.49" y="26.81" width="31.8" height="20.58"/>
          <ellipse class="cls-9" cx="37.14" cy="34.08" rx="11.8" ry="11.18"/>
          <rect class="cls-15" x="35.42" y="20.73" width="3.8" height="7.13"/>
          <ellipse class="cls-12" cx="53.54" cy="27.85" rx="11.8" ry="11.18"/>
          <rect class="cls-15" x="40.77" y="27.55" width="9.81" height="5.21"/>
          <rect class="cls-15" x="49.25" y="15.34" width="13.83" height="18.14"/>
          <rect class="cls-20" x="38.81" y="19.64" width="4.36" height="7.9"/>
          <path class="cls-4" d="M37.96,17.79c.24-.21.53-.25.84-.23.49.02.98,0,1.47,0,.14,0,.29-.02.41.08.29.27.57.53.92.85h-4.39c.27-.26.51-.49.74-.71Z"/>
          <rect class="cls-17" x="50.92" y="14.43" width="3.66" height=".91" rx=".45" ry=".45"/>
          <rect class="cls-17" x="50.92" y="15.89" width="3.66" height=".91" rx=".45" ry=".45"/>
          <rect class="cls-17" x="50.92" y="17.35" width="3.66" height=".91" rx=".45" ry=".45"/>
          <rect class="cls-17" x="50.92" y="18.81" width="3.66" height=".91" rx=".45" ry=".45"/>
          <rect class="cls-17" x="50.92" y="20.28" width="3.66" height=".91" rx=".45" ry=".45"/>
          <rect class="cls-17" x="38.5" y="19.18" width="5.41" height=".95" rx=".47" ry=".47"/>
          <rect class="cls-17" x="38.52" y="20.7" width="5.41" height=".95" rx=".47" ry=".47"/>
          <rect class="cls-17" x="38.52" y="22.23" width="5.41" height=".95" rx=".47" ry=".47"/>
          <rect class="cls-17" x="38.52" y="23.77" width="5.41" height=".95" rx=".47" ry=".47"/>
          <rect class="cls-17" x="38.52" y="25.31" width="5.41" height=".95" rx=".47" ry=".47"/>
          <rect class="cls-17" x="38.52" y="26.91" width="5.41" height=".95" rx=".47" ry=".47"/>
          <rect class="cls-17" x="50.92" y="21.74" width="3.66" height=".91" rx=".45" ry=".45"/>
          <rect class="cls-17" x="50.92" y="23.2" width="3.66" height=".91" rx=".45" ry=".45"/>
          <rect class="cls-17" x="50.92" y="24.66" width="3.66" height=".91" rx=".45" ry=".45"/>
          <path class="cls-17" d="M37.69,18.03l-1.74,1.59s-.74.7-.78,1.33c-.03.48,0,13.75,0,13.75h.66l.03-13.15s-.09-.75.6-1.46c.76-.79,1.94-1.74,1.94-1.74l-.72-.32Z"/>
          <polygon class="cls-4" points="55.22 34.69 35.42 34.69 35.42 33.2 55.74 33.2 55.22 34.69"/>
          <path class="cls-17" d="M43.58,30.36l-.79-.74-.79-.74-.79.74-.79.74h-.01v3.12h.95c-.04-.09-.06-.18-.06-.28v-1.55c0-.39.32-.71.71-.71s.71.32.71.71v1.55c0,.1-.02.2-.06.28h.95v-3.12h-.01Z"/>
          <polygon class="cls-17" points="53.54 29.7 44.03 29.7 42.67 28.32 52.44 28.32 53.54 29.7"/>
          <polygon class="cls-16" points="55.32 31.48 45.81 31.48 44.45 30.11 54.22 30.11 55.32 31.48"/>
          <rect class="cls-17" x="45.88" y="31.97" width="9.86" height="1.22"/>
          <path class="cls-17" d="M61.18,26.79c-.55-2.99-.62-7.27-2.67-9.42-.77-.81-2.32-.87-3.06-1.72-.28.16-.21.44-.21.68,0,2.73,0,5.47,0,8.2,0,.35,0,.69.05,1.04.04.32.04.64,0,.96-.02.14-.06.28-.23.27-.16,0-.17-.15-.19-.27-.02-.17-.02-.35-.02-.52,0-3.56,0-7.12,0-10.68,0-.22.05-.46-.12-.65-.02-.06-.03-.13-.07-.19-.48-.81-1.11-1.5-1.7-2.22-.08-.1-.17-.1-.28-.1-.53,0-1.07,0-1.6,0-.16,0-.24.04-.23.22.03.41.04.82.05,1.24.16.17.37.13.56.14.56.01,1.12,0,1.68.01.09,0,.23,0,.24.13h.01v12.11s.02.02.02.04c0,.02-.01.03-.02.04h0s0,0,0,0c-.02.06-.06.1-.13.12-.16.04-.32.03-.48.03-.63.03-1.25-.06-1.88.06-.09.04-.15.1-.19.19-.06.15-.04.32-.05.47-.01.13-.06.24-.21.24-.16,0-.19-.12-.19-.25,0-.15,0-.29-.03-.44-.03-.11-.05-.22-.04-.33,0-3.63,0-7.25,0-10.88,0-.2.01-.4-.03-.6-.04-.16-.12-.26-.31-.24-.44.06-1.12.79-1.13,1.25,0,2.08-.01,4.16,0,6.24,0,.07,0,.14.01.21,0,.68,0,1.36,0,2.1-.24-.17-.36-.33-.51-.46-.29-.27-.57-.56-.85-.84-.97-1.07-1.96-2.13-2.99-3.15-.75-.76-.72-.61-1.25-.64v8.37h-2.76c.12,0,.23,0,.35,0-.06.12-.13.21-.21.29,0,0-.01,0-.01.01h1.98s.01,0,.02,0c.95.02,1.89,0,2.84,0,1.95,0,3.9,0,5.84,0,.35,0,.66.04.81.42-.15.08-.3.05-.44.05-2.48,0-4.96,0-7.45,0-.19,0-.38-.01-.56.02-.34.07-.41.22-.22.5.28.44.64.7,1.21.69,2.63-.02,5.26,0,7.89-.02.53,0,.94.11,1.23.57.04.05.09.1.13.14.17.16.69.42.86.58.04.08.97,1.81,1.04,1.83l1.58-.38c.02-.06.09-1.54.09-1.62,0-.46.03-.92-.02-1.38-.04-.16-.17-.27-.26-.4-.18-.3-.14-.63.1-.83.25-.21.62-.22.84,0,.25.24.27.55.05.86-.11.15-.23.29-.22.5.02.45.01.9,0,1.36,0,.3.12.48.41.54.34.08.66.22.97.35.08.03.16.07.22.13h2.32c-.03-1.61-.36-3.38-.65-4.97Z"/>
          <path class="cls-13" d="M37.6,20.28h.32v13.27h-1.56v-12.03c0-.68.56-1.24,1.24-1.24Z"/>
          <path class="cls-15" d="M11.42,37.7c.31-.71.72-1.2,1.4-1.41,1.73-.52,3.45-1.05,5.18-1.55,5.47-1.59,10.94-3.17,16.4-4.74.32-.09.66-.2.98-.18.98.04,1.9-.25,2.84-.43,1.39-.26,2.77-.11,4.14.19,1.11.24,2.21.51,3.31.78.52.13,1,.34,1.33.78.19.25.31.56.47.84l-.1.09c-.25-.07-.5-.15-.75-.22-2.16-.65-4.36-1.2-6.61-1.41-.89-.08-1.8.12-2.71.2-.58.05-1.18.05-1.74.19-1.66.41-3.31.87-4.95,1.34-4.46,1.27-8.91,2.56-13.36,3.84-1.85.53-3.69,1.09-5.53,1.64-.07.02-.15.03-.31.07Z"/>
          <path class="cls-15" d="M19.63,41.4c0-.7,0-1.38,0-2.06,0-.71,0-1.42,0-2.13,0-.24.06-.41.32-.48,1.32-.38,2.64-.77,3.99-1.16.01.16.03.27.03.38,0,1.34,0,2.68,0,4.02,0,.27-.07.4-.35.47-1.27.31-2.54.64-3.8.96-.05.01-.1,0-.2.01Z"/>
          <path class="cls-15" d="M44.32,37.57c-.51-.08-.96-.15-1.42-.22-.41-.07-.81-.17-1.22-.22-.33-.04-.46-.23-.52-.51-.18-.89-.36-1.78-.54-2.67-.1-.47-.2-.94-.3-1.41-.11-.5.02-.66.53-.57.81.14,1.62.32,2.42.51.13.03.29.24.31.39.25,1.54.48,3.08.73,4.7Z"/>
          <path class="cls-15" d="M33.23,40.24v-.9c1.12-.26,2.23-.53,3.35-.79,2-.46,3.98-.26,5.97.09,1.86.33,3.73.64,5.59.95.14.02.62-.06.77-.02v.78c-.88-.14-2.08-.17-2.93-.3-1.86-.29-3.71-.63-5.58-.83-2.02-.22-4,.14-5.94.7-.4.12-.8.2-1.22.31Z"/>
          <path class="cls-15" d="M44.48,32.68c.83.23,1.58.42,2.31.66.15.05.31.27.35.44.26,1.25.5,2.51.73,3.77.09.53-.09.68-.63.57-.52-.1-1.05-.2-1.57-.28-.23-.03-.34-.11-.38-.36-.22-1.39-.47-2.79-.7-4.18-.03-.17-.05-.34-.09-.62Z"/>
          <path class="cls-15" d="M24.77,40.16c0-1.53,0-3.01,0-4.48,0-.3.2-.43.44-.5.66-.2,1.33-.38,2.04-.59v4.94c-.8.2-1.62.41-2.47.62Z"/>
          <path class="cls-15" d="M33.21,38.05c0-.26,0-.48,0-.71,0-1.26,0-2.52,0-3.78,0-.43.2-.68.6-.79.33-.09.68-.17,1-.28.28-.1.4.01.46.27.01.05.03.11.03.16,0,1.35,0,2.71-.01,4.06,0,.5-.17.66-.65.77-.45.1-.91.19-1.41.3Z"/>
          <path class="cls-15" d="M27.24,40.89c.1.81.11.82-.58.99-3.82.94-7.64,1.87-11.46,2.8-.02,0-.05,0-.07-.01-.01-.02-.03-.05-.03-.07q-.05-.73.65-.9c3.77-.93,7.54-1.85,11.31-2.78.05-.01.1-.02.18-.03Z"/>
          <path class="cls-15" d="M39.7,37.14c-.73,0-1.35,0-1.98,0-.31,0-.29-.24-.29-.43,0-1,0-2.01,0-3.01,0-.39.03-.78.04-1.16.02-.41.29-.59.65-.65.34-.06.64.17.73.55.21.99.39,1.99.57,2.98.1.52.17,1.04.28,1.71Z"/>
          <path class="cls-15" d="M29.26,39.1c0-1.06,0-2.03,0-3.01,0-.54-.02-1.07.02-1.61.01-.18.15-.43.31-.51.37-.18.77-.28,1.17-.38.08-.02.21.09.28.16.05.05.07.15.07.23,0,1.46,0,2.92-.01,4.38,0,.1-.15.25-.26.29-.49.16-1,.28-1.58.44Z"/>
          <path class="cls-15" d="M18.9,37.01c0,1.49,0,2.92-.01,4.35,0,.11-.15.27-.26.31-.31.11-.64.18-1.02.27-.03-.18-.07-.34-.07-.51,0-1.14,0-2.28,0-3.42,0-.56.09-.68.61-.83.23-.07.46-.12.75-.19Z"/>
          <path class="cls-15" d="M15.11,42.55c0-1.43-.01-2.83.02-4.23,0-.13.26-.3.43-.36.59-.21.66-.15.66.48,0,.95,0,1.9,0,2.85,0,.97-.08,1.07-1.12,1.27Z"/>
          <path class="cls-15" d="M14.15,38.37c0,1.45,0,2.85,0,4.25,0,.09-.13.22-.23.25-.22.08-.46.12-.76.19,0-.17,0-.31,0-.45,0-1.14,0-2.28,0-3.41,0-.78-.05-.57.62-.78.1-.03.21-.03.38-.05Z"/>
          <path class="cls-15" d="M12.22,38.92c0,1.4,0,2.78,0,4.15,0,.19-.53.47-.81.38-.11-.04-.22-.29-.21-.43.11-1.17.26-2.33.36-3.5.03-.41.21-.58.66-.6Z"/>
          <path class="cls-15" d="M29.3,41.28q-.07-.86.71-1.07c.35-.09.69-.18,1.1-.28,0,.22-.01.42,0,.61.02.22-.08.31-.28.36-.51.12-1.01.25-1.54.38Z"/>
          <path class="cls-15" d="M11.03,45.66v-.79c.37-.08.71-.16,1.06-.23.2.9.3.79-1.06,1.02Z"/>
          <path class="cls-15" d="M14.1,44.15c.02.26.04.52.06.8-.33.09-.64.18-.94.26-.14-.95-.2-.88.89-1.06Z"/>
          <path d="M56.24,32.46l-6.99,1.28s-.53-1.48-1.21-2.77c-.74-1.4-1.79-1.82-4.41-2.44-2.62-.62-5.09-.84-6.42-.57-1.33.27-2.75.57-2.75.57l-20.23,5.74s-2.44.57-3.28,1.73c-1,1.38-1,6.07-1,6.07l-.27,3.98-3.04.82c1.88,4.39,4.79,8.11,8.81,11.08,4.69,3.46,10.01,5.32,15.85,5.62,2.63.13,5.25-.08,7.82-.66,6.69-1.52,12.17-4.93,16.34-10.41,3.48-4.57,6.88-9.69,7.22-15.4.12-1.95-.1-4.39-.38-6.31l-6.06,1.67ZM48.14,39.6c.14.02.57.12.71.16,0,.26.06.32.06.6-.88-.14-2.08-.17-2.93-.3-1.86-.29-3.71-.63-5.58-.83-2.02-.22-4,.14-5.94.7-.4.12-.8.2-1.22.31v-.9c1.12-.26,2.23-.53,3.35-.79,2-.46,3.98-.26,5.97.09,1.86.33,3.73.64,5.59.95ZM48.35,42.16c0,.54-.35.93-.84.94-.5,0-.94-.5-.94-1.1,0-.5.39-.94.85-.95.5,0,.92.49.93,1.11ZM46.05,41.89c0,.77-.44,1.27-1.13,1.28-.71.01-1.29-.65-1.29-1.46,0-.7.51-1.28,1.11-1.29.67-.01,1.3.69,1.3,1.47ZM43.06,41.43c0,.6-.36,1.01-.89,1.01-.53,0-.95-.47-.96-1.08,0-.58.38-1.03.9-1.03.5,0,.95.51.95,1.09ZM33.21,38.05c0-.26,0-.48,0-.71,0-1.26,0-2.52,0-3.78,0-.43.2-.68.6-.79.33-.09.68-.17,1-.28.28-.1.4.01.46.27.01.05.03.11.03.16,0,1.35,0,2.71-.01,4.06,0,.5-.17.66-.65.77-.45.1-.91.19-1.41.3ZM37.43,36.71c0-1,0-2.01,0-3.01,0-.39.03-.77.04-1.16.02-.41.29-.59.65-.65.34-.06.64.17.73.55.21.99.39,1.99.57,2.98.1.52.17,1.04.28,1.71-.73,0-1.35,0-1.98,0-.31,0-.29-.24-.29-.43ZM40.85,31.96c.81.14,1.62.32,2.42.51.13.03.29.24.31.39.25,1.54.48,3.08.73,4.7-.51-.08-.96-.15-1.42-.22-.41-.07-.81-.17-1.22-.22-.33-.04-.46-.23-.52-.51-.18-.89-.36-1.78-.54-2.67-.1-.47-.2-.94-.3-1.41-.11-.5.02-.66.53-.57ZM47.23,38.12c-.52-.1-1.05-.2-1.57-.28-.23-.03-.34-.11-.38-.36-.22-1.39-.47-2.79-.7-4.18-.03-.17-.05-.34-.09-.62.83.23,1.58.42,2.31.66.15.05.31.27.35.44.26,1.25.5,2.51.73,3.77.09.53-.09.68-.63.57ZM12.81,36.29c1.73-.52,3.45-1.05,5.18-1.55,5.47-1.59,10.94-3.17,16.41-4.74.32-.09.66-.2.98-.18.98.04,1.9-.25,2.84-.43,1.39-.26,2.77-.11,4.14.19,1.11.24,2.21.51,3.31.78.52.13,1,.34,1.33.78.19.25.31.56.47.84-.03.03-.07.06-.1.09-.25-.07-.5-.15-.75-.22-2.16-.65-4.36-1.2-6.61-1.41-.89-.08-1.8.12-2.71.2-.58.05-1.18.05-1.74.19-1.66.41-3.31.87-4.95,1.34-4.46,1.27-8.91,2.56-13.36,3.84-1.85.53-3.69,1.09-5.53,1.64-.07.02-.15.03-.31.07.31-.71.72-1.2,1.4-1.41ZM31.1,38.36c0,.1-.15.25-.26.29-.49.16-1,.28-1.58.44,0-1.06,0-2.03,0-3.01,0-.54-.02-1.07.02-1.61.01-.18.15-.43.31-.51.37-.18.77-.28,1.17-.38.08-.02.21.09.28.16.05.05.07.15.07.23,0,.56,0,1.12,0,1.68,0,.9,0,1.8-.01,2.71ZM31.11,40.54c.02.22-.08.31-.28.36-.51.12-1.01.25-1.54.38q-.07-.86.71-1.07c.35-.09.69-.18,1.1-.28,0,.22-.01.42,0,.61ZM15.75,43.7c3.77-.93,7.54-1.85,11.31-2.78.05-.01.1-.02.18-.03.1.81.11.82-.58.99-3.82.94-7.64,1.87-11.46,2.8-.02,0-.05,0-.07-.01-.01-.02-.03-.05-.03-.07q-.05-.73.65-.9ZM15.13,38.32c0-.13.26-.3.43-.36.59-.21.66-.15.66.48,0,.95,0,1.9,0,2.85,0,.97-.08,1.07-1.12,1.27,0-1.43-.01-2.83.02-4.23ZM17.53,38.03c0-.56.09-.68.61-.83.23-.07.46-.12.75-.19,0,1.49,0,2.92-.01,4.35,0,.11-.15.27-.26.31-.31.11-.64.18-1.02.27-.03-.18-.07-.34-.07-.51,0-1.14,0-2.28,0-3.42ZM19.63,41.4c0-.7,0-1.38,0-2.06,0-.71,0-1.42,0-2.13,0-.24.06-.41.32-.48,1.32-.38,2.64-.77,3.99-1.16.01.16.03.27.03.38,0,1.34,0,2.68,0,4.02,0,.27-.07.4-.35.47-1.27.31-2.54.64-3.8.96-.05.01-.1,0-.2.01ZM24.77,35.68c0-.3.2-.43.44-.5.66-.2,1.33-.38,2.04-.59v4.94c-.8.2-1.62.41-2.47.62,0-1.53,0-3.01,0-4.48ZM13.15,39.2c0-.78-.05-.57.62-.78.1-.03.21-.03.38-.05,0,1.45,0,2.85,0,4.25,0,.09-.13.22-.23.25-.22.08-.46.12-.76.19,0-.17,0-.31,0-.45,0-1.14,0-2.28,0-3.41ZM14.1,44.15c.02.26.04.52.06.8-.33.09-.64.18-.94.26-.14-.95-.2-.88.89-1.06ZM11.03,45.66v-.79c.37-.08.71-.16,1.06-.23.2.9.3.79-1.06,1.02ZM12.21,43.08c0,.19-.53.47-.81.38-.11-.04-.22-.29-.21-.43.11-1.17.26-2.33.36-3.5.03-.41.21-.58.66-.6,0,1.4,0,2.78,0,4.15ZM53.44,51.31c-.17.19-.56.19-.85.27-2.86.71-5.74,1.34-8.57,2.14-4.64,1.31-9.12,3.08-13.35,5.43-.97.54-1.92,1.11-2.89,1.66-.12.07-.29.13-.4.09-.76-.25-1.51-.52-2.35-.82.41-.26.75-.5,1.11-.72,3.34-2.04,6.9-3.6,10.56-4.96,5.03-1.86,10.21-3.17,15.43-4.35.84-.19,1.69-.36,2.54-.54.02.03.04.07.06.1-.42.57-.8,1.17-1.27,1.69ZM56.03,47.38c-.06.1-.27.15-.42.18-2.58.49-5.16.96-7.74,1.45-3.38.64-6.75,1.29-10.12,1.94-2.21.42-4.42.85-6.63,1.28-3.36.65-6.72,1.3-10.08,1.94-1.69.32-3.38.63-5.06.95-.31.06-.57.04-.79-.22-.16-.19-.37-.34-.6-.56,14.03-2.77,27.99-5.52,42.05-8.29-.22.5-.38.93-.6,1.33ZM57.11,44.93c-.03.07-.17.12-.27.14-2.96.6-5.93,1.19-8.89,1.78-2.55.51-5.09,1.01-7.64,1.51-2.9.57-5.8,1.14-8.7,1.71-2.52.5-5.04,1.01-7.56,1.51-3.26.65-6.53,1.29-9.8,1.92-.16.03-.39-.05-.53-.15-.26-.18-.47-.41-.75-.66,14.91-3.08,29.75-6.14,44.68-9.22-.19.52-.36.99-.54,1.46Z"/>
          <path class="cls-15" d="M49.25,33.79l.77,4.56v5.29l9.44-1.49,2.53-.36s2.29-7.77.99-7.92c-4.54-.54-13.73-.07-13.73-.07Z"/>
          <path class="cls-6" d="M13.73,58.15c-.35-.76-.32-1.67.16-2.39.7-1.03,1.88-.97,2.86-.2.22.17.66-.02.82-.25.16-.23.15-.68-.07-.85-1.42-1.12-3.39-.81-4.4.68-.6.88-.72,1.98-.43,2.96.35.04.7.06,1.06.06Z"/>
          <polygon class="cls-6" points="69.63 39.87 58.38 39.91 54.25 34.04 66.42 34.01 69.63 39.87"/>
          <rect class="cls-6" x="50.81" y="40.64" width="1.4" height="1.71" rx=".28" ry=".28"/>
          <rect class="cls-6" x="52.73" y="40.63" width="3.48" height="1.71" rx=".44" ry=".44"/>
          <polygon class="cls-16" points="57.15 39.97 51.03 39.97 51.4 38.95 56.6 38.95 57.15 39.97"/>
          <polygon class="cls-5" points="54.9 37.94 54.9 36.7 54.43 36.07 53.97 35.45 53.5 36.07 53.03 36.7 53.03 37.94 54.9 37.94"/>
          <path class="cls-6" d="M53.64,34.08l-3.06,5.18s-.16-1.69-.34-2.76c-.12-.75-.36-2.18-.36-2.18l3.76-.24Z"/>
          <circle class="cls-11" cx="54.72" cy="47.78" r="6.01"/>
          <path class="cls-6" d="M55.06,52.05c-.38.02-1.03-.87-.73-.64,1.49,1.13,3.08-.55,2.23-.8-1.63-.47,1.38-1.5,1.27-3.19s-1.57-2.98-3.26-2.87c-1.69.11-2.53,1.54-2.42,3.23.02.38-.53.77-.91.79s-.88-.3-.9-.68c-.16-2.45,1.7-4.56,4.15-4.72,2.45-.16,4.56,1.7,4.72,4.15.16,2.45-1.7,4.56-4.15,4.72Z"/>
          <path class="cls-6" d="M57.72,46.39c-.28-.64-.86-1.14-1.58-1.24-1.03-.14-1.66.63-1.73,1.67-.02.23-.38.4-.62.37-.23-.03-.51-.29-.49-.52.1-1.51,1.4-2.57,2.89-2.36.88.12,1.63.66,2.08,1.39-.17.24-.36.47-.56.69Z"/>
          <polygon class="cls-15" points="21.06 29.76 -4.44 29.76 -2.86 28.74 22.64 28.74 21.06 29.76"/>
          <polygon class="cls-15" points="14.47 32.3 -6.41 32.3 -5.12 31.46 15.76 31.46 14.47 32.3"/>
          <path class="cls-3" d="M11.46,45.32l22.5-5.27s2.99-.92,4.34-1.11,4.33.48,4.33.48l6.3.85s.22,3.45,0,3.76-1.23.33-1.91.43c-.68.1-3.24-.91-4.47-.9-1.23.01-2.85-.35-3.92-.14-1.44.29-3.44,1.78-4.11,1.83s-4.74,1.25-4.74,1.25l-18.2,3.47"/>
          <path class="cls-10" d="M19.1,49.86c-.34,0-.68.03-1,.08-.04-4.82-3.95-8.71-8.78-8.71S.54,45.16.54,50.01s3.93,8.78,8.78,8.78c.99,0,1.95-.17,2.84-.48.64,3.25,3.5,5.71,6.94,5.71,3.91,0,7.08-3.17,7.08-7.08s-3.17-7.08-7.08-7.08Z"/>
          <path class="cls-6" d="M11.19,58.5c.64-.23.98-.93.76-1.58-.23-.64-.93-.98-1.58-.76-2.87,1.01-6.03-.51-7.04-3.38-1.01-2.87.51-6.03,3.38-7.04,2.87-1.01,5.28.77,6.29,3.64.23.64,1.42.9,2.07.67.64-.23,1.24-1.11,1.02-1.76-1.46-4.16-6.04-6.35-10.19-4.89-4.16,1.46-6.35,6.04-4.89,10.2,1.46,4.16,6.04,6.35,10.2,4.89Z"/>
          <path class="cls-15" d="M46.05,41.89c0,.77-.44,1.27-1.13,1.28-.71.01-1.29-.65-1.28-1.46,0-.7.51-1.28,1.11-1.29.67-.01,1.3.69,1.3,1.47Z"/>
          <path class="cls-15" d="M43.06,41.43c0,.6-.36,1.01-.89,1.01-.53,0-.95-.47-.96-1.08,0-.58.38-1.03.9-1.03.5,0,.95.51.95,1.09Z"/>
          <path class="cls-15" d="M48.35,42.16c0,.54-.35.93-.84.94-.5,0-.94-.5-.94-1.1,0-.5.39-.94.85-.95.5,0,.92.49.93,1.11Z"/>
          <rect class="cls-6" x="27.24" y="40.89" width="2.02" height="6.5"/>
          <rect class="cls-6" x="31.11" y="39.91" width="2.12" height="6.52"/>
          <path class="cls-6" d="M21.45,63.01c.47-.26.55-1.83.37-1.32-.89,2.49-4.07,1.73-3.26.78,1.56-1.82-2.8-.71-3.98-2.79-1.18-2.08-.44-4.73,1.64-5.91,2.08-1.18,4.19-.14,5.37,1.95.26.47,1.23.5,1.69.23s.81-1.03.54-1.5c-1.71-3.01-5.55-4.08-8.56-2.37-3.01,1.71-4.08,5.55-2.37,8.56,1.71,3.01,5.55,4.08,8.56,2.37Z"/>
          <path class="cls-6" d="M14.31,58.28c-.17-.97.14-2.01.91-2.68,1.11-.97,2.44-.54,3.33.64.2.26.77.18,1.01-.04.25-.22.38-.74.18-1-1.28-1.7-3.63-1.95-5.24-.55-.95.83-1.42,2.04-1.38,3.25.39.15.79.28,1.19.38Z"/>
        </g>
      </g>
    </g>
  </g>
</svg>